<svg version="1.1" id="Layer_1" xmlns="http://www.w3.org/2000/svg" xmlns:xlink="http://www.w3.org/1999/xlink" x="0px" y="0px"
	 width="100%" viewBox="0 0 256 256" enable-background="new 0 0 256 256" xml:space="preserve">
<path fill="#FD8289" opacity="1.000000" stroke="none" 
	d="
M139.000000,1.000000 
	C145.021149,1.000000 151.042297,1.000000 157.191101,1.329852 
	C157.984634,2.094399 158.618576,2.846313 159.321136,2.917103 
	C174.401749,4.436616 188.968430,8.241459 202.817780,14.167954 
	C214.609787,19.214071 225.855820,25.460117 233.832916,36.176853 
	C234.855453,37.550549 236.980484,38.799980 238.648636,38.872742 
	C244.924484,39.146488 251.345627,38.156509 257.000000,42.000000 
	C257.000000,53.354229 257.000000,64.708458 256.738556,76.194954 
	C253.319489,77.602715 250.161850,78.878204 246.540802,80.084694 
	C211.471695,79.981766 176.866043,79.939919 142.260376,79.916031 
	C104.828644,79.890198 67.396889,79.881126 29.902229,79.523209 
	C26.627462,75.349648 25.381447,70.945076 26.219971,65.734093 
	C31.244698,60.572964 31.135139,57.577156 25.972355,51.931755 
	C26.116261,42.144341 29.177834,39.096073 38.482159,39.033684 
	C41.281757,39.014912 44.081318,38.991344 46.936447,39.437759 
	C47.000492,44.399059 47.015190,48.892578 47.016300,53.386093 
	C47.019581,66.666939 47.017479,66.666939 60.181557,66.057945 
	C69.935593,65.606712 74.775932,56.742252 69.918205,48.305092 
	C69.300591,47.232384 68.570335,45.945755 68.636665,44.801384 
	C69.264107,33.976303 67.314178,31.416780 57.080124,29.607794 
	C62.707123,24.156450 68.422714,19.344849 76.183838,18.524357 
	C76.134865,24.184116 77.423332,25.212938 82.860916,23.924547 
	C113.864517,16.578489 144.857147,16.668808 175.849426,23.960535 
	C178.572662,24.601252 181.548157,25.159405 182.486191,21.699503 
	C183.545731,17.791508 180.250519,16.801851 177.476837,16.364971 
	C165.334625,14.452460 153.208618,12.093746 140.980042,11.150424 
	C120.802551,9.593915 100.776749,11.756410 81.089066,15.603771 
	C81.941856,14.651982 82.593132,13.708347 83.447144,13.458969 
	C93.311852,10.578419 103.115379,7.398972 113.122635,5.123333 
	C121.621490,3.190701 130.364838,2.333208 139.000000,1.000000 
M122.629372,61.958050 
	C128.742966,66.639153 135.375687,67.576569 142.263123,64.093666 
	C148.181519,61.100788 151.471313,56.022797 151.954941,49.380028 
	C152.541656,41.321495 147.368057,33.732529 139.830292,31.244316 
	C131.924316,28.634556 123.486076,31.668062 118.941742,38.753647 
	C114.272598,46.033836 115.413750,54.284306 122.629372,61.958050 
M78.921402,58.404182 
	C79.686157,59.277878 80.391846,60.212856 81.224892,61.015682 
	C88.605713,68.128761 100.374748,67.694130 107.025841,60.086754 
	C113.873024,52.255066 112.691414,40.355995 104.435966,34.006256 
	C97.936142,29.006876 88.603058,29.157507 82.282402,34.363811 
	C75.353081,40.071468 73.931725,48.855015 78.921402,58.404182 
M196.825653,65.993568 
	C204.680847,66.056297 209.677490,63.072010 210.929535,57.569878 
	C212.252533,51.755924 209.273483,47.573986 201.567444,44.304272 
	C199.243652,43.318264 196.982941,42.183563 194.337402,40.951176 
	C197.677109,36.614273 200.533539,38.668022 203.664673,39.636307 
	C205.443375,40.186356 207.689651,39.224377 209.725357,38.943333 
	C208.970215,36.981537 208.778107,34.265793 207.352814,33.201397 
	C203.315414,30.186333 198.532791,29.330021 193.648849,31.257664 
	C189.597275,32.856792 187.120621,35.812511 187.018143,40.328754 
	C186.920120,44.648712 189.076401,47.569618 192.991409,49.228809 
	C195.440033,50.266537 198.057999,50.994682 200.329132,52.324352 
	C201.516846,53.019730 202.119736,54.714024 202.986755,55.957172 
	C201.626404,56.693859 200.166183,58.173855 198.927155,58.007412 
	C196.584778,57.692764 194.428757,56.154812 192.082428,55.653198 
	C190.252518,55.261990 188.251663,55.670330 186.326797,55.723362 
	C186.611694,57.654137 186.205688,60.434265 187.322296,61.342560 
	C189.806305,63.363144 193.052277,64.446991 196.825653,65.993568 
M165.123703,58.562115 
	C165.838364,58.327061 166.912430,57.671051 167.209702,57.924866 
	C169.227982,59.648029 171.083817,61.561699 172.989410,63.416599 
	C174.954269,65.329185 177.166656,67.503685 179.802673,65.020996 
	C182.661850,62.328129 180.632156,59.925930 178.439240,57.872177 
	C174.972427,54.625370 171.484909,51.400673 167.741776,47.920845 
	C171.747513,44.198795 174.905411,41.279362 178.045822,38.341244 
	C180.088638,36.430016 181.369659,33.875805 178.817688,32.039711 
	C177.585144,31.152922 174.501648,31.837311 172.825623,32.800774 
	C170.250931,34.280853 168.167114,36.614876 165.307587,39.074615 
	C165.198318,36.843880 165.511002,35.482491 165.003525,34.584728 
	C164.123886,33.028584 162.736435,31.759497 161.561951,30.370018 
	C160.199570,31.595863 157.700211,32.782326 157.656189,34.053833 
	C157.328674,43.509785 157.359100,52.986660 157.655701,62.445099 
	C157.693527,63.651588 160.112656,65.879074 161.084045,65.705498 
	C162.565308,65.440804 163.922745,63.624249 164.975143,62.202000 
	C165.458939,61.548191 165.094223,60.266521 165.123703,58.562115 
M233.998032,52.108540 
	C230.395340,53.289932 228.088455,55.856918 228.953415,59.522068 
	C229.514374,61.898987 231.420502,64.928673 233.470825,65.712761 
	C235.547897,66.507080 239.357697,65.697525 240.910263,64.117874 
	C242.481125,62.519592 243.062164,58.939217 242.558914,56.546299 
	C241.788406,52.882561 238.511658,51.612667 233.998032,52.108540 
z"/>
<path fill="#9BE69D" opacity="1.000000" stroke="none" 
	d="
M257.000000,240.000000 
	C257.000000,245.655777 257.000000,251.311539 257.000000,257.000000 
	C186.979111,257.000000 116.958214,257.000000 46.231834,256.761505 
	C37.267799,251.466309 35.670242,244.426544 41.377365,238.254013 
	C42.258350,237.301193 43.124134,236.334320 44.414509,235.300049 
	C48.149582,235.422043 51.466869,235.783752 54.784637,235.788162 
	C86.931831,235.830978 119.079109,235.823517 151.226334,235.793579 
	C153.545013,235.791412 155.863434,235.500320 158.609344,235.449127 
	C161.664429,235.454987 164.292145,235.355286 167.375076,235.387207 
	C182.907822,235.491623 197.985336,235.464417 213.517136,235.529022 
	C220.001923,235.381836 226.032425,235.142822 232.525055,234.946167 
	C241.241272,235.265076 250.065750,233.042313 256.703674,240.400879 
	C256.802460,240.267258 256.901245,240.133636 257.000000,240.000000 
z"/>
<path fill="#000000" opacity="1.000000" stroke="none" 
	d="
M257.000000,239.531342 
	C256.901245,240.133636 256.802460,240.267258 256.703674,240.400879 
	C250.065750,233.042313 241.241272,235.265076 232.498978,234.485504 
	C232.023575,190.352142 232.036377,146.721786 232.427338,103.046890 
	C240.346634,100.774742 246.342163,97.174568 246.459656,87.832390 
	C246.881897,85.138611 246.943054,82.646149 247.004227,80.153687 
	C250.161850,78.878204 253.319489,77.602715 256.738556,76.663612 
	C257.000000,131.020889 257.000000,185.041794 257.000000,239.531342 
z"/>
<path fill="#000000" opacity="1.000000" stroke="none" 
	d="
M0.999997,240.000000 
	C1.000000,185.645767 1.000000,131.291550 1.268805,76.137955 
	C3.679472,78.922676 6.813300,80.558777 10.992537,80.584496 
	C11.053597,83.347733 11.110056,85.677467 11.091543,88.395538 
	C12.369370,97.320709 17.649767,101.753853 25.957903,103.520279 
	C25.962952,147.624100 25.937733,191.262817 25.451263,234.938721 
	C21.857670,234.979843 18.697262,234.722748 15.600310,235.055756 
	C11.975042,235.445602 8.348939,236.148376 4.838272,237.127853 
	C3.403423,237.528168 2.270354,239.010117 0.999997,240.000000 
z"/>
<path fill="#000000" opacity="1.000000" stroke="none" 
	d="
M1.000000,43.000000 
	C1.000000,29.043272 1.000000,15.086542 1.000000,1.000000 
	C34.020790,1.000000 67.041733,1.000000 100.845345,1.353563 
	C101.116203,2.111952 100.656166,2.765833 100.084900,2.884578 
	C90.105095,4.958992 79.973091,6.453912 70.151245,9.102363 
	C51.994877,13.998209 35.747761,22.429981 23.335409,37.110176 
	C22.698421,37.863552 21.787863,38.874142 20.968935,38.908298 
	C14.078355,39.195751 6.862078,37.703373 1.000000,43.000000 
z"/>
<path fill="#FE6570" opacity="1.000000" stroke="none" 
	d="
M1.000000,43.468658 
	C6.862078,37.703373 14.078355,39.195751 20.968935,38.908298 
	C21.787863,38.874142 22.698421,37.863552 23.335409,37.110176 
	C35.747761,22.429981 51.994877,13.998209 70.151245,9.102363 
	C79.973091,6.453912 90.105095,4.958992 100.084900,2.884578 
	C100.656166,2.765833 101.116203,2.111952 101.314003,1.353563 
	C113.354225,1.000000 125.708458,1.000000 138.531342,1.000000 
	C130.364838,2.333208 121.621490,3.190701 113.122635,5.123333 
	C103.115379,7.398972 93.311852,10.578419 83.447144,13.458969 
	C82.593132,13.708347 81.941856,14.651982 80.805893,15.775864 
	C79.025116,16.896248 77.634842,17.513899 76.244568,18.131550 
	C68.422714,19.344849 62.707123,24.156450 56.659531,29.687792 
	C47.273666,30.491806 47.273666,30.491806 46.880898,38.969975 
	C44.081318,38.991344 41.281757,39.014912 38.482159,39.033684 
	C29.177834,39.096073 26.116261,42.144341 25.555878,51.838371 
	C17.690680,51.497204 13.085475,56.223782 15.672404,61.993397 
	C17.756008,66.640450 21.605339,67.113533 25.999567,65.997597 
	C25.381447,70.945076 26.627462,75.349648 29.437485,79.560333 
	C23.019751,80.009659 17.003843,80.080322 10.987935,80.150993 
	C6.813300,80.558777 3.679472,78.922676 1.268805,75.669296 
	C1.000000,65.312439 1.000000,54.624878 1.000000,43.468658 
z"/>
<path fill="#000000" opacity="1.000000" stroke="none" 
	d="
M257.000000,41.531342 
	C251.345627,38.156509 244.924484,39.146488 238.648636,38.872742 
	C236.980484,38.799980 234.855453,37.550549 233.832916,36.176853 
	C225.855820,25.460117 214.609787,19.214071 202.817780,14.167954 
	C188.968430,8.241459 174.401749,4.436616 159.321136,2.917103 
	C158.618576,2.846313 157.984634,2.094399 157.659363,1.329852 
	C190.896561,1.000000 223.793106,1.000000 257.000000,1.000000 
	C257.000000,14.352625 257.000000,27.707655 257.000000,41.531342 
z"/>
<path fill="#71D8A3" opacity="1.000000" stroke="none" 
	d="
M0.999997,240.470444 
	C2.270354,239.010117 3.403423,237.528168 4.838272,237.127853 
	C8.348939,236.148376 11.975042,235.445602 15.600310,235.055756 
	C18.697262,234.722748 21.857670,234.979843 25.907276,235.024384 
	C30.200480,235.042847 33.576416,235.012863 37.389816,235.040207 
	C39.883839,235.189667 41.940392,235.281799 43.996948,235.373947 
	C43.124134,236.334320 42.258350,237.301193 41.377365,238.254013 
	C35.670242,244.426544 37.267799,251.466309 45.763176,256.761505 
	C31.107536,257.000000 16.215073,257.000000 1.000000,257.000000 
	C1.000000,251.651291 1.000000,246.296097 0.999997,240.470444 
z"/>
<path fill="#E2E2E2" opacity="1.000000" stroke="none" 
	d="
M10.992537,80.584496 
	C17.003843,80.080322 23.019751,80.009659 29.500402,79.901871 
	C67.396889,79.881126 104.828644,79.890198 142.260376,79.916031 
	C176.866043,79.939919 211.471695,79.981766 246.540802,80.084694 
	C246.943054,82.646149 246.881897,85.138611 245.984833,87.825577 
	C167.154800,88.015778 89.160660,88.011490 11.166513,88.007202 
	C11.110056,85.677467 11.053597,83.347733 10.992537,80.584496 
z"/>
<path fill="#F9F3F4" opacity="1.000000" stroke="none" 
	d="
M76.183838,18.524357 
	C77.634842,17.513899 79.025116,16.896248 80.698555,16.106506 
	C100.776749,11.756410 120.802551,9.593915 140.980042,11.150424 
	C153.208618,12.093746 165.334625,14.452460 177.476837,16.364971 
	C180.250519,16.801851 183.545731,17.791508 182.486191,21.699503 
	C181.548157,25.159405 178.572662,24.601252 175.849426,23.960535 
	C144.857147,16.668808 113.864517,16.578489 82.860916,23.924547 
	C77.423332,25.212938 76.134865,24.184116 76.183838,18.524357 
z"/>
<path fill="#F9F3F5" opacity="1.000000" stroke="none" 
	d="
M122.356606,61.714470 
	C115.413750,54.284306 114.272598,46.033836 118.941742,38.753647 
	C123.486076,31.668062 131.924316,28.634556 139.830292,31.244316 
	C147.368057,33.732529 152.541656,41.321495 151.954941,49.380028 
	C151.471313,56.022797 148.181519,61.100788 142.263123,64.093666 
	C135.375687,67.576569 128.742966,66.639153 122.356606,61.714470 
M144.106720,48.430283 
	C143.191635,39.798935 135.288086,35.361332 128.668579,39.762241 
	C124.698441,42.401745 122.986877,47.146210 124.585335,51.480812 
	C126.268616,56.045418 129.617661,58.313736 134.502182,58.183971 
	C139.613144,58.048183 142.659439,55.175209 144.106720,48.430283 
z"/>
<path fill="#F9F3F5" opacity="1.000000" stroke="none" 
	d="
M46.936447,39.437759 
	C47.273666,30.491806 47.273666,30.491806 56.559258,30.004869 
	C67.314178,31.416780 69.264107,33.976303 68.636665,44.801384 
	C68.570335,45.945755 69.300591,47.232384 69.918205,48.305092 
	C74.775932,56.742252 69.935593,65.606712 60.181557,66.057945 
	C47.017479,66.666939 47.019581,66.666939 47.016300,53.386093 
	C47.015190,48.892578 47.000492,44.399059 46.936447,39.437759 
M63.187672,56.903561 
	C64.515450,51.485847 62.162876,49.961536 55.317131,51.803978 
	C54.438389,58.648258 55.255711,59.288273 63.187672,56.903561 
M58.960873,38.090706 
	C57.630283,38.668720 56.299690,39.246738 54.969097,39.824753 
	C55.472137,40.892685 55.787766,42.678623 56.519691,42.869667 
	C57.795940,43.202789 59.328617,42.553490 60.753811,42.315960 
	C60.411217,40.963722 60.068623,39.611481 58.960873,38.090706 
z"/>
<path fill="#F9F3F5" opacity="1.000000" stroke="none" 
	d="
M78.706825,58.095009 
	C73.931725,48.855015 75.353081,40.071468 82.282402,34.363811 
	C88.603058,29.157507 97.936142,29.006876 104.435966,34.006256 
	C112.691414,40.355995 113.873024,52.255066 107.025841,60.086754 
	C100.374748,67.694130 88.605713,68.128761 81.224892,61.015682 
	C80.391846,60.212856 79.686157,59.277878 78.706825,58.095009 
M89.001320,39.212940 
	C83.225349,43.508507 81.847664,49.289623 85.444626,54.137730 
	C88.537415,58.306293 94.368645,59.508011 98.783051,56.886543 
	C103.119316,54.311481 104.880402,49.003708 102.936501,44.368351 
	C100.785416,39.238956 95.976151,37.256783 89.001320,39.212940 
z"/>
<path fill="#F9F3F4" opacity="1.000000" stroke="none" 
	d="
M196.406677,65.953110 
	C193.052277,64.446991 189.806305,63.363144 187.322296,61.342560 
	C186.205688,60.434265 186.611694,57.654137 186.326782,55.723362 
	C188.251663,55.670330 190.252518,55.261990 192.082428,55.653198 
	C194.428757,56.154812 196.584778,57.692764 198.927155,58.007412 
	C200.166183,58.173855 201.626404,56.693859 202.986755,55.957169 
	C202.119736,54.714024 201.516846,53.019730 200.329132,52.324352 
	C198.057999,50.994682 195.440033,50.266537 192.991409,49.228809 
	C189.076401,47.569618 186.920120,44.648712 187.018143,40.328754 
	C187.120621,35.812511 189.597275,32.856792 193.648849,31.257664 
	C198.532791,29.330021 203.315414,30.186333 207.352814,33.201397 
	C208.778107,34.265793 208.970215,36.981537 209.725357,38.943329 
	C207.689651,39.224377 205.443375,40.186356 203.664673,39.636307 
	C200.533539,38.668022 197.677109,36.614273 194.337402,40.951176 
	C196.982941,42.183563 199.243652,43.318264 201.567444,44.304272 
	C209.273483,47.573986 212.252533,51.755924 210.929535,57.569878 
	C209.677490,63.072010 204.680847,66.056297 196.406677,65.953110 
z"/>
<path fill="#F9F2F3" opacity="1.000000" stroke="none" 
	d="
M165.118988,58.915836 
	C165.094223,60.266521 165.458939,61.548191 164.975143,62.202000 
	C163.922745,63.624249 162.565308,65.440804 161.084045,65.705498 
	C160.112656,65.879074 157.693527,63.651588 157.655701,62.445099 
	C157.359100,52.986660 157.328674,43.509785 157.656189,34.053833 
	C157.700211,32.782326 160.199570,31.595863 161.561951,30.370018 
	C162.736435,31.759497 164.123886,33.028584 165.003525,34.584728 
	C165.511002,35.482491 165.198318,36.843880 165.307587,39.074615 
	C168.167114,36.614876 170.250931,34.280853 172.825623,32.800774 
	C174.501648,31.837311 177.585144,31.152922 178.817688,32.039711 
	C181.369659,33.875805 180.088638,36.430016 178.045822,38.341244 
	C174.905411,41.279362 171.747513,44.198795 167.741776,47.920845 
	C171.484909,51.400673 174.972427,54.625370 178.439240,57.872177 
	C180.632156,59.925930 182.661850,62.328129 179.802673,65.020996 
	C177.166656,67.503685 174.954269,65.329185 172.989410,63.416599 
	C171.083817,61.561699 169.227982,59.648029 167.209702,57.924866 
	C166.912430,57.671051 165.838364,58.327061 165.118988,58.915836 
z"/>
<path fill="#ECE7E7" opacity="1.000000" stroke="none" 
	d="
M26.219971,65.734093 
	C21.605339,67.113533 17.756008,66.640450 15.672404,61.993397 
	C13.085475,56.223782 17.690680,51.497204 25.545242,52.288490 
	C31.135139,57.577156 31.244698,60.572964 26.219971,65.734093 
z"/>
<path fill="#EBE8E8" opacity="1.000000" stroke="none" 
	d="
M234.394653,52.044167 
	C238.511658,51.612667 241.788406,52.882561 242.558914,56.546299 
	C243.062164,58.939217 242.481125,62.519592 240.910263,64.117874 
	C239.357697,65.697525 235.547897,66.507080 233.470825,65.712761 
	C231.420502,64.928673 229.514374,61.898987 228.953415,59.522068 
	C228.088455,55.856918 230.395340,53.289932 234.394653,52.044167 
z"/>
<path fill="#C58D7A" opacity="1.000000" stroke="none" 
	d="
M44.414509,235.300049 
	C41.940392,235.281799 39.883839,235.189667 37.399567,234.572998 
	C36.975822,191.355835 36.996815,148.663177 36.931805,105.970657 
	C36.928665,103.909500 36.168522,101.849495 35.948456,99.525085 
	C37.243011,98.268723 38.350014,97.276237 39.431522,96.306602 
	C50.061417,104.348213 54.546055,104.357712 64.083496,97.312706 
	C69.256943,99.103722 73.657829,101.832169 78.042107,101.805733 
	C82.413658,101.779373 86.768547,98.991089 90.331223,97.702827 
	C94.851982,99.208511 99.283096,101.886337 103.662964,101.804977 
	C108.041458,101.723648 112.368675,98.882347 117.155830,97.086845 
	C125.565643,104.336975 131.194229,104.322868 141.592255,96.423798 
	C151.432098,104.291687 155.476730,104.295876 165.926193,97.313545 
	C171.233536,99.131676 175.643127,101.843933 180.028992,101.806068 
	C184.397202,101.768349 188.741562,98.970757 193.595886,97.201187 
	C202.036591,104.341522 207.300705,104.322083 217.070847,97.117538 
	C222.462555,99.267952 227.255859,101.179695 232.049164,103.091446 
	C232.036377,146.721786 232.023575,190.352142 232.036865,234.443146 
	C226.032425,235.142822 220.001923,235.381836 213.528534,235.111526 
	C213.098770,199.160843 213.128235,163.719467 213.109390,128.278122 
	C213.106155,122.190849 211.832718,120.987427 205.774734,120.900276 
	C193.476471,120.723320 181.177856,120.569931 168.486877,120.338821 
	C160.500992,120.457520 158.101746,122.391121 158.098541,128.899994 
	C158.081146,164.381149 158.145645,199.862366 158.181976,235.343567 
	C155.863434,235.500320 153.545013,235.791412 151.226334,235.793579 
	C119.079109,235.823517 86.931831,235.830978 54.784637,235.788162 
	C51.466869,235.783752 48.149582,235.422043 44.414509,235.300049 
M55.952675,208.075974 
	C81.439735,208.068451 106.926804,208.065475 132.413864,208.050797 
	C140.862579,208.045929 142.872803,206.004883 142.879791,197.346161 
	C142.896744,176.356766 142.885925,155.367355 142.885422,134.377945 
	C142.885101,121.553238 142.219955,120.946304 129.304703,120.881912 
	C104.496468,120.758232 79.688568,120.568626 54.116718,120.275345 
	C46.287403,120.871277 44.846188,122.331985 44.838924,129.962311 
	C44.817272,152.697144 44.822357,175.431992 44.834934,198.166840 
	C44.839787,206.933838 46.215050,208.242569 55.952675,208.075974 
z"/>
<path fill="#7B6F7A" opacity="1.000000" stroke="none" 
	d="
M168.879395,120.406830 
	C181.177856,120.569931 193.476471,120.723320 205.774734,120.900276 
	C211.832718,120.987427 213.106155,122.190849 213.109390,128.278122 
	C213.128235,163.719467 213.098770,199.160843 213.074249,235.019714 
	C197.985336,235.464417 182.907822,235.491623 167.391571,234.980377 
	C166.964859,199.632919 166.927643,164.823715 167.071060,130.015244 
	C167.084259,126.810013 168.249237,123.609520 168.879395,120.406830 
M171.842728,200.258698 
	C172.055603,207.114838 172.994247,208.070969 179.700928,208.106598 
	C184.522583,208.132202 189.344696,208.124771 194.166306,208.089523 
	C198.020020,208.061356 200.020660,206.075104 200.023712,202.220627 
	C200.040115,181.436813 200.048492,160.652954 200.018204,139.869186 
	C200.012604,136.027298 197.929443,134.056625 194.106750,134.022217 
	C189.285263,133.978821 184.463028,133.988159 179.641281,134.009995 
	C173.101257,134.039597 171.858322,135.278854 171.850571,141.951187 
	C171.828369,161.072357 171.842331,180.193558 171.842728,200.258698 
z"/>
<path fill="#695F69" opacity="1.000000" stroke="none" 
	d="
M168.486877,120.338821 
	C168.249237,123.609520 167.084259,126.810013 167.071060,130.015244 
	C166.927643,164.823715 166.964859,199.632919 166.936340,234.848755 
	C164.292145,235.355286 161.664429,235.454987 158.609344,235.449112 
	C158.145645,199.862366 158.081146,164.381149 158.098541,128.899994 
	C158.101746,122.391121 160.500992,120.457520 168.486877,120.338821 
z"/>
<path fill="#EAEAEA" opacity="1.000000" stroke="none" 
	d="
M232.427338,103.046890 
	C227.255859,101.179695 222.462555,99.267952 217.070847,97.117538 
	C207.300705,104.322083 202.036591,104.341522 193.595886,97.201187 
	C188.741562,98.970757 184.397202,101.768349 180.028992,101.806068 
	C175.643127,101.843933 171.233536,99.131676 165.926193,97.313545 
	C155.476730,104.295876 151.432098,104.291687 141.592255,96.423798 
	C131.194229,104.322868 125.565643,104.336975 117.155830,97.086845 
	C112.368675,98.882347 108.041458,101.723648 103.662964,101.804977 
	C99.283096,101.886337 94.851982,99.208511 90.331223,97.702827 
	C86.768547,98.991089 82.413658,101.779373 78.042107,101.805733 
	C73.657829,101.832169 69.256943,99.103722 64.083496,97.312706 
	C54.546055,104.357712 50.061417,104.348213 39.431522,96.306602 
	C38.350014,97.276237 37.243011,98.268723 35.600456,99.638763 
	C32.019142,101.029259 28.973391,102.042206 25.927637,103.055153 
	C17.649767,101.753853 12.369370,97.320709 11.091542,88.395538 
	C89.160660,88.011490 167.154800,88.015778 245.623779,88.026886 
	C246.342163,97.174568 240.346634,100.774742 232.427338,103.046890 
z"/>
<path fill="#BD7D64" opacity="1.000000" stroke="none" 
	d="
M25.957903,103.520279 
	C28.973391,102.042206 32.019142,101.029259 35.412895,99.902634 
	C36.168522,101.849495 36.928665,103.909500 36.931805,105.970657 
	C36.996815,148.663177 36.975822,191.355835 36.962097,234.515686 
	C33.576416,235.012863 30.200480,235.042847 26.368530,234.987183 
	C25.937733,191.262817 25.962952,147.624100 25.957903,103.520279 
z"/>
<path fill="#FD8289" opacity="1.000000" stroke="none" 
	d="
M144.088165,48.837543 
	C142.659439,55.175209 139.613144,58.048183 134.502182,58.183971 
	C129.617661,58.313736 126.268616,56.045418 124.585335,51.480812 
	C122.986877,47.146210 124.698441,42.401745 128.668579,39.762241 
	C135.288086,35.361332 143.191635,39.798935 144.088165,48.837543 
z"/>
<path fill="#FD8289" opacity="1.000000" stroke="none" 
	d="
M62.886551,57.199543 
	C55.255711,59.288273 54.438389,58.648258 55.317131,51.803978 
	C62.162876,49.961536 64.515450,51.485847 62.886551,57.199543 
z"/>
<path fill="#FD878E" opacity="1.000000" stroke="none" 
	d="
M59.343452,38.174973 
	C60.068623,39.611481 60.411217,40.963722 60.753815,42.315960 
	C59.328617,42.553490 57.795940,43.202789 56.519691,42.869667 
	C55.787766,42.678623 55.472137,40.892685 54.969101,39.824753 
	C56.299690,39.246738 57.630283,38.668720 59.343452,38.174973 
z"/>
<path fill="#FD838A" opacity="1.000000" stroke="none" 
	d="
M89.360626,39.066998 
	C95.976151,37.256783 100.785416,39.238956 102.936501,44.368351 
	C104.880402,49.003708 103.119316,54.311481 98.783051,56.886543 
	C94.368645,59.508011 88.537415,58.306293 85.444626,54.137730 
	C81.847664,49.289623 83.225349,43.508507 89.360626,39.066998 
z"/>
<path fill="#7B6E79" opacity="1.000000" stroke="none" 
	d="
M54.880535,120.406364 
	C79.688568,120.568626 104.496468,120.758232 129.304703,120.881912 
	C142.219955,120.946304 142.885101,121.553238 142.885422,134.377945 
	C142.885925,155.367355 142.896744,176.356766 142.879791,197.346161 
	C142.872803,206.004883 140.862579,208.045929 132.413864,208.050797 
	C106.926804,208.065475 81.439735,208.068451 55.295506,207.734329 
	C53.755432,204.669479 52.132442,201.953278 52.106583,199.221954 
	C51.897820,177.171661 52.033508,155.118362 51.952629,133.066391 
	C51.936115,128.563889 51.865250,124.157799 54.880535,120.406364 
M89.500000,134.000656 
	C81.504539,134.000931 73.508911,133.969467 65.513672,134.012085 
	C59.708946,134.043015 58.094433,135.621048 58.078217,141.425827 
	C58.035412,156.750397 58.035496,172.075226 58.078659,187.399796 
	C58.094799,193.130478 59.792961,194.846893 65.539742,194.860779 
	C84.362350,194.906219 103.185219,194.909683 122.007790,194.856750 
	C127.470619,194.841385 129.085617,193.161438 129.100998,187.622147 
	C129.144028,172.131012 129.145569,156.639587 129.100357,141.148468 
	C129.084030,135.550797 127.557114,134.040359 121.982178,134.015305 
	C111.488312,133.968109 100.994080,134.001022 89.500000,134.000656 
z"/>
<path fill="#695F69" opacity="1.000000" stroke="none" 
	d="
M54.498627,120.340851 
	C51.865250,124.157799 51.936115,128.563889 51.952629,133.066391 
	C52.033508,155.118362 51.897820,177.171661 52.106583,199.221954 
	C52.132442,201.953278 53.755432,204.669479 54.828659,207.706375 
	C46.215050,208.242569 44.839787,206.933838 44.834934,198.166840 
	C44.822357,175.431992 44.817272,152.697144 44.838924,129.962311 
	C44.846188,122.331985 46.287403,120.871277 54.498627,120.340851 
z"/>
<path fill="#D4F2F6" opacity="1.000000" stroke="none" 
	d="
M171.842407,199.786728 
	C171.842331,180.193558 171.828369,161.072357 171.850571,141.951187 
	C171.858322,135.278854 173.101257,134.039597 179.641281,134.009995 
	C184.463028,133.988159 189.285263,133.978821 194.106750,134.022217 
	C197.929443,134.056625 200.012604,136.027298 200.018204,139.869186 
	C200.048492,160.652954 200.040115,181.436813 200.023712,202.220627 
	C200.020660,206.075104 198.020020,208.061356 194.166306,208.089523 
	C189.344696,208.124771 184.522583,208.132202 179.700928,208.106598 
	C172.994247,208.070969 172.055603,207.114838 171.842407,199.786728 
z"/>
<path fill="#D4F1F5" opacity="1.000000" stroke="none" 
	d="
M90.000000,134.000656 
	C100.994080,134.001022 111.488312,133.968109 121.982178,134.015305 
	C127.557114,134.040359 129.084030,135.550797 129.100357,141.148468 
	C129.145569,156.639587 129.144028,172.131012 129.100998,187.622147 
	C129.085617,193.161438 127.470619,194.841385 122.007790,194.856750 
	C103.185219,194.909683 84.362350,194.906219 65.539742,194.860779 
	C59.792961,194.846893 58.094799,193.130478 58.078659,187.399796 
	C58.035496,172.075226 58.035412,156.750397 58.078217,141.425827 
	C58.094433,135.621048 59.708946,134.043015 65.513672,134.012085 
	C73.508911,133.969467 81.504539,134.000931 90.000000,134.000656 
z"/>
</svg>